<svg xmlns="http://www.w3.org/2000/svg" width="32" height="32" viewBox="0 0 32 32" fill="none">
    <path d="M15.9998 2.66699C19.6225 2.66699 20.0745 2.68033 21.4958 2.74699C22.9158 2.81366 23.8825 3.03633 24.7332 3.36699C25.6132 3.70566 26.3545 4.16433 27.0958 4.90433C27.7738 5.57085 28.2984 6.37711 28.6332 7.26699C28.9625 8.11632 29.1865 9.08432 29.2532 10.5043C29.3158 11.9257 29.3332 12.3777 29.3332 16.0003C29.3332 19.623 29.3198 20.075 29.2532 21.4963C29.1865 22.9163 28.9625 23.883 28.6332 24.7337C28.2994 25.624 27.7747 26.4305 27.0958 27.0963C26.4291 27.7741 25.6229 28.2987 24.7332 28.6337C23.8838 28.963 22.9158 29.187 21.4958 29.2537C20.0745 29.3163 19.6225 29.3337 15.9998 29.3337C12.3772 29.3337 11.9252 29.3203 10.5038 29.2537C9.08384 29.187 8.11717 28.963 7.2665 28.6337C6.37627 28.2996 5.56987 27.7749 4.90384 27.0963C4.22571 26.4299 3.70108 25.6236 3.3665 24.7337C3.03584 23.8843 2.81317 22.9163 2.7465 21.4963C2.68384 20.075 2.6665 19.623 2.6665 16.0003C2.6665 12.3777 2.67984 11.9257 2.7465 10.5043C2.81317 9.08299 3.03584 8.11766 3.3665 7.26699C3.70015 6.37656 4.22491 5.57009 4.90384 4.90433C5.57007 4.22597 6.37641 3.7013 7.2665 3.36699C8.11717 3.03633 9.0825 2.81366 10.5038 2.74699C11.9252 2.68433 12.3772 2.66699 15.9998 2.66699ZM15.9998 9.33366C14.2317 9.33366 12.536 10.036 11.2858 11.2863C10.0355 12.5365 9.33317 14.2322 9.33317 16.0003C9.33317 17.7684 10.0355 19.4641 11.2858 20.7144C12.536 21.9646 14.2317 22.667 15.9998 22.667C17.7679 22.667 19.4636 21.9646 20.7139 20.7144C21.9641 19.4641 22.6665 17.7684 22.6665 16.0003C22.6665 14.2322 21.9641 12.5365 20.7139 11.2863C19.4636 10.036 17.7679 9.33366 15.9998 9.33366ZM24.6665 9.00033C24.6665 8.5583 24.4909 8.13437 24.1783 7.82181C23.8658 7.50925 23.4419 7.33366 22.9998 7.33366C22.5578 7.33366 22.1339 7.50925 21.8213 7.82181C21.5088 8.13437 21.3332 8.5583 21.3332 9.00033C21.3332 9.44235 21.5088 9.86628 21.8213 10.1788C22.1339 10.4914 22.5578 10.667 22.9998 10.667C23.4419 10.667 23.8658 10.4914 24.1783 10.1788C24.4909 9.86628 24.6665 9.44235 24.6665 9.00033ZM15.9998 12.0003C17.0607 12.0003 18.0781 12.4218 18.8283 13.1719C19.5784 13.922 19.9998 14.9395 19.9998 16.0003C19.9998 17.0612 19.5784 18.0786 18.8283 18.8288C18.0781 19.5789 17.0607 20.0003 15.9998 20.0003C14.939 20.0003 13.9216 19.5789 13.1714 18.8288C12.4213 18.0786 11.9998 17.0612 11.9998 16.0003C11.9998 14.9395 12.4213 13.922 13.1714 13.1719C13.9216 12.4218 14.939 12.0003 15.9998 12.0003Z" fill="white"/>
</svg>