<svg xmlns="http://www.w3.org/2000/svg" width="32" height="32" viewBox="0 0 32 32" fill="none">
    <path d="M27.3332 2.66699H4.6665C3.55539 2.66699 2.6665 3.5596 2.6665 4.56378V27.4369C2.6665 28.4411 3.55539 29.3337 4.6665 29.3337H27.3332C28.4443 29.3337 29.3332 28.4411 29.3332 27.4369V4.56378C29.3332 3.5596 28.4443 2.66699 27.3332 2.66699ZM10.5554 25.4285H6.6665V12.7088H10.5554V25.4285ZM8.6665 10.9236C7.44428 10.9236 6.33317 9.91943 6.33317 8.58052C6.33317 7.24161 7.33317 6.23742 8.6665 6.23742C9.88873 6.23742 10.9998 7.24161 10.9998 8.58052C10.9998 9.91943 9.88873 10.9236 8.6665 10.9236ZM25.4443 25.3169H21.5554V19.0687C21.5554 17.6182 21.5554 15.6098 19.4443 15.6098C17.3332 15.6098 17.1109 17.2834 17.1109 18.8455V25.2053H13.2221V12.7088H16.8887V14.3825H16.9998C17.5554 13.3783 18.8887 12.2625 20.7776 12.2625C24.7776 12.2625 25.5554 14.9404 25.5554 18.3992V25.3169H25.4443Z" fill="white"/>
</svg>